<?xml version="1.0" standalone="no"?>
<!DOCTYPE svg PUBLIC "-//W3C//DTD SVG 20010904//EN"
 "http://www.w3.org/TR/2001/REC-SVG-20010904/DTD/svg10.dtd">
<svg version="1.0" xmlns="http://www.w3.org/2000/svg"
 width="360.000000pt" height="360.000000pt" viewBox="0 0 360.000000 360.000000"
 preserveAspectRatio="xMidYMid meet">
<metadata>
Created by potrace 1.14, written by Peter Selinger 2001-2017
</metadata>
<g transform="translate(0.000000,360.000000) scale(0.100000,-0.100000)"
fill="#000000" stroke="none">
<path d="M1211 3150 c-55 -13 -81 -32 -107 -76 l-24 -41 0 -899 0 -900 23 -44
c16 -33 34 -51 67 -68 l44 -22 547 0 c496 0 548 2 560 16 10 12 15 61 19 170
5 153 5 153 34 183 41 43 79 51 241 51 96 0 145 4 153 12 15 15 17 1453 2
1508 -12 45 -65 97 -111 110 -41 12 -1398 12 -1448 0z m1454 -105 l25 -24 0
-711 0 -710 -132 0 c-144 0 -186 -11 -241 -62 -51 -48 -67 -101 -67 -230 l0
-118 -517 0 -517 0 -23 22 -23 21 0 898 0 898 26 20 c26 21 34 21 736 21 l709
0 24 -25z"/>
<path d="M1402 2718 c-7 -7 -12 -39 -12 -73 0 -34 5 -66 12 -73 17 -17 1039
-17 1056 0 7 7 12 39 12 75 0 51 -3 64 -19 73 -30 15 -1033 14 -1049 -2z
m1018 -73 l0 -35 -490 0 -490 0 0 35 0 35 490 0 490 0 0 -35z"/>
<path d="M1408 2439 c-25 -14 -26 -144 -2 -153 9 -3 246 -6 528 -6 385 0 515
3 524 12 7 7 12 39 12 75 0 51 -3 64 -19 73 -27 14 -1019 13 -1043 -1z m1012
-79 l0 -30 -490 0 -490 0 0 30 0 30 490 0 490 0 0 -30z"/>
<path d="M1397 2153 c-10 -10 -8 -141 2 -147 5 -4 244 -6 532 -7 418 0 524 3
530 13 10 15 12 109 3 132 -5 14 -62 16 -533 16 -290 0 -531 -3 -534 -7z
m1023 -73 l0 -30 -490 0 -490 0 0 30 0 30 490 0 490 0 0 -30z"/>
<path d="M2473 1451 c-68 -32 -84 -75 -81 -219 4 -142 12 -149 91 -75 355 330
343 307 157 310 -105 2 -132 0 -167 -16z m186 -48 c0 -5 -46 -49 -102 -100
l-102 -92 -3 70 c-3 72 13 112 48 122 26 8 160 7 159 0z"/>
<path d="M802 774 c-25 -17 -28 -41 -8 -67 13 -16 53 -17 700 -15 598 3 688 5
696 18 13 21 12 54 -2 68 -9 9 -176 12 -688 12 -595 0 -678 -2 -698 -16z"/>
<path d="M1818 529 c-25 -14 -24 -65 1 -79 13 -6 177 -10 465 -10 433 0 447 1
466 20 11 11 20 24 20 30 0 6 -9 19 -20 30 -19 19 -33 20 -467 20 -286 0 -454
-4 -465 -11z"/>
</g>
</svg>
